<?xml version="1.0" standalone="no"?>
<!DOCTYPE svg PUBLIC "-//W3C//DTD SVG 20010904//EN"
 "http://www.w3.org/TR/2001/REC-SVG-20010904/DTD/svg10.dtd">
<svg version="1.0" xmlns="http://www.w3.org/2000/svg"
 width="703.000000pt" height="1280.000000pt" viewBox="0 0 703.000000 1280.000000"
 preserveAspectRatio="xMidYMid meet">
<metadata>
Created by potrace 1.15, written by Peter Selinger 2001-2017
</metadata>
<g transform="translate(0.000000,1280.000000) scale(0.100000,-0.100000)"
fill="#000000" stroke="none">
<path d="M1441 12781 c-35 -35 -28 -189 11 -230 16 -18 31 -21 108 -21 l90 0
0 -828 c0 -805 3 -885 31 -903 7 -4 -4 -12 -25 -19 -38 -12 -102 -70 -173
-156 l-43 -52 0 -1990 c0 -1094 -3 -2010 -6 -2035 -8 -58 -1 -88 32 -126 14
-17 24 -31 22 -31 -2 0 -153 50 -336 110 -183 61 -334 110 -336 110 -12 0 -25
-154 -17 -205 7 -47 6 -63 -5 -76 -8 -8 -14 -30 -14 -47 0 -24 -13 -45 -59
-94 -55 -60 -59 -67 -66 -128 l-7 -64 -136 -142 c-127 -133 -152 -167 -132
-179 4 -3 4 -22 -1 -42 -15 -67 -11 -151 11 -192 25 -50 122 -145 185 -182 59
-34 68 -36 60 -9 -6 18 -4 19 20 10 14 -5 61 -10 104 -10 42 0 81 -4 87 -10
12 -12 239 206 269 258 16 26 26 32 52 32 17 0 35 5 38 10 3 6 19 10 36 10 16
0 29 5 29 10 0 6 11 15 24 20 13 5 41 29 62 54 25 30 46 46 61 46 13 0 31 5
41 11 15 9 43 3 140 -29 67 -23 138 -44 157 -48 25 -4 35 -12 35 -24 0 -10 11
-27 25 -38 21 -17 25 -28 25 -70 0 -28 5 -63 12 -79 6 -15 10 -34 9 -41 -1 -6
10 -17 24 -24 14 -6 25 -17 25 -24 0 -7 8 -19 18 -26 15 -10 20 -32 26 -113
11 -165 38 -306 61 -319 11 -6 36 -25 56 -42 19 -17 56 -39 82 -50 47 -19 61
-34 32 -34 -8 0 -15 -4 -15 -9 0 -15 104 -24 183 -16 85 9 173 36 169 53 -1 7
4 12 10 12 15 0 86 106 98 147 4 15 9 22 9 16 1 -7 8 -13 16 -13 17 0 20 16 5
25 -6 4 -6 15 0 31 15 38 12 96 -10 233 -22 134 -19 164 22 216 18 23 20 36
16 118 -4 70 -1 97 10 115 8 12 12 34 9 49 -4 22 4 37 40 77 25 28 56 72 69
99 l25 48 -1 307 c0 206 -4 310 -11 319 -9 11 3 13 65 13 l76 0 0 43 0 43 258
0 c141 -1 281 1 310 3 l54 5 -1 -162 -2 -162 623 2 623 3 10 23 c5 12 12 22
15 22 3 0 5 -10 6 -22 0 -13 6 -119 14 -237 15 -250 9 -570 -14 -716 -22 -136
-68 -316 -112 -433 -130 -348 -369 -668 -576 -773 -31 -16 -61 -29 -66 -29 -5
0 -7 14 -4 30 6 39 -14 85 -46 110 -24 20 -51 20 -2037 20 l-2012 0 -7 -52
c-10 -86 -7 -114 12 -131 17 -16 148 -17 1673 -17 l1654 0 -3 -197 c-2 -109
-7 -220 -12 -248 -8 -47 -5 -232 6 -283 l4 -22 -1264 0 -1265 0 -10 -52 c-14
-69 -31 -273 -31 -368 0 -101 14 -148 48 -162 34 -14 268 -13 417 1 71 7 466
11 1101 11 l991 0 11 22 c8 17 11 -137 11 -575 l1 -597 -77 -51 -77 -50 -925
4 c-783 2 -958 6 -1131 21 -220 19 -335 13 -371 -20 -43 -39 -49 -197 -20
-546 l17 -217 -62 -65 c-143 -150 -248 -317 -337 -538 -33 -82 -34 -88 -19
-110 14 -20 14 -22 0 -10 -18 14 -30 4 -42 -35 -7 -22 -4 -23 38 -23 25 0 46
4 46 9 0 5 19 2 43 -6 34 -12 76 -14 228 -8 139 5 236 2 380 -10 229 -20 398
-17 448 8 19 9 39 17 45 17 6 0 17 10 25 23 l14 22 -24 -20 c-15 -13 -12 -6 9
18 17 21 32 47 32 58 0 20 4 20 1903 14 2465 -8 2284 -5 2292 -30 4 -11 6 -30
5 -42 -1 -21 35 -51 47 -39 3 3 14 1 24 -4 41 -23 155 -29 308 -18 122 9 190
8 325 -2 244 -20 402 -19 444 2 21 11 45 15 63 11 28 -5 29 -4 29 30 0 29 -3
35 -16 30 -14 -5 -15 -3 -5 15 17 32 13 148 -8 232 -67 263 -295 671 -592
1055 -170 220 -310 355 -369 355 -7 0 -33 23 -58 51 -116 129 -220 292 -288
452 l-44 102 0 704 0 703 -36 -7 c-24 -4 -34 -3 -29 4 3 6 13 11 21 11 30 0
99 44 150 95 66 66 133 169 194 299 141 299 185 559 162 947 -31 501 -112 843
-315 1334 -77 187 -129 298 -336 727 -360 748 -478 1037 -567 1397 l-28 114
13 156 c34 433 34 600 -2 683 -20 48 -44 52 -235 44 -81 -3 -243 -9 -360 -12
l-212 -6 -62 66 c-165 181 -415 275 -639 241 -46 -7 -91 -16 -100 -20 -35 -14
-30 18 9 58 l40 42 -39 45 -39 45 40 39 39 40 -39 46 -39 46 40 44 c38 41 39
44 23 67 -28 44 -88 63 -197 63 -54 0 -107 -5 -118 -10 -18 -10 -19 -6 -19 89
0 107 -1 109 -58 113 -16 0 -8 4 18 7 l45 6 -78 66 c-42 37 -102 79 -131 95
l-54 28 28 18 c38 22 44 67 36 255 -4 82 -10 438 -14 793 -6 594 -8 648 -25
673 l-17 27 124 0 124 0 7 40 c12 70 10 177 -4 193 -10 13 -100 16 -664 21
-359 4 -696 9 -749 12 -89 5 -98 4 -117 -15z m849 -7291 c-19 -13 -30 -13 -30
0 0 6 10 10 23 10 18 0 19 -2 7 -10z m70 -514 c0 -2 -7 -6 -15 -10 -8 -3 -15
-1 -15 4 0 6 7 10 15 10 8 0 15 -2 15 -4z m1662 -1243 c-23 -23 -28 -25 -30
-11 -3 16 -13 19 -117 31 -16 2 16 5 72 6 l102 1 -27 -27z"/>
</g>
</svg>
